<svg xmlns="http://www.w3.org/2000/svg" xmlns:xlink="http://www.w3.org/1999/xlink" width="500" zoomAndPan="magnify" viewBox="0 0 375 374.999991" height="500" preserveAspectRatio="xMidYMid meet" version="1.0"><defs><g/><clipPath id="a9504b7105"><path d="M 127.21875 0 L 253.796875 0 L 253.796875 208.953125 L 127.21875 208.953125 Z M 127.21875 0 " clip-rule="nonzero"/></clipPath><clipPath id="a685952c88"><path d="M 202 20 L 253.796875 20 L 253.796875 208 L 202 208 Z M 202 20 " clip-rule="nonzero"/></clipPath><clipPath id="bdb59651ea"><path d="M 234.539062 268.601562 L 298.832031 268.601562 L 298.832031 375 L 234.539062 375 Z M 234.539062 268.601562 " clip-rule="nonzero"/></clipPath><clipPath id="4d48390eeb"><path d="M 272 279 L 298.832031 279 L 298.832031 375 L 272 375 Z M 272 279 " clip-rule="nonzero"/></clipPath><clipPath id="c249c36872"><path d="M 76 208.941406 L 148.289062 208.941406 L 148.289062 328.488281 L 76 328.488281 Z M 76 208.941406 " clip-rule="nonzero"/></clipPath><clipPath id="626d7d15f8"><path d="M 118 220 L 148.289062 220 L 148.289062 328 L 118 328 Z M 118 220 " clip-rule="nonzero"/></clipPath></defs><g clip-path="url(#a9504b7105)"><path fill="#e70008" d="M 190.335938 -0.0078125 C 190.253906 -0.0078125 190.179688 0.0351562 190.140625 0.101562 C 158.550781 56.113281 127.277344 111.828125 127.625 150.140625 C 127.96875 188.027344 159.3125 208.949219 190.410156 208.949219 C 190.820312 208.949219 191.230469 208.945312 191.640625 208.9375 C 191.644531 208.9375 191.648438 208.9375 191.652344 208.9375 L 191.648438 208.9375 C 223.128906 208.371094 253.753906 186.285156 253.40625 147.886719 C 253.058594 109.578125 221.957031 54.992188 190.535156 0.117188 C 190.5 0.0429688 190.425781 -0.0078125 190.335938 -0.0078125 Z M 190.335938 -0.0078125 " fill-opacity="1" fill-rule="nonzero"/></g><g clip-path="url(#a685952c88)"><path fill="#d50009" d="M 202.410156 20.949219 L 202.597656 22.554688 C 202.945312 26.480469 204.742188 34.488281 207.988281 46.582031 C 212.578125 62.398438 217.832031 79.117188 223.757812 96.742188 C 224.414062 98.878906 225.359375 102.390625 226.585938 107.273438 C 227.992188 112.75 229.144531 118.683594 230.046875 125.082031 C 230.386719 126.699219 230.734375 130.957031 231.085938 137.863281 C 231.15625 146.085938 230.441406 153.15625 228.949219 159.078125 C 228.066406 163.167969 226.964844 167.15625 225.648438 171.039062 L 223.507812 176.789062 C 218.800781 188.269531 212.316406 198.539062 204.050781 207.589844 C 213.054688 205.785156 221.292969 202.296875 228.757812 197.132812 C 232.445312 194.558594 235.804688 191.585938 238.835938 188.21875 L 243.066406 182.882812 C 245.699219 179.132812 247.867188 175.011719 249.570312 170.515625 L 251.703125 163.503906 L 253.007812 155.957031 L 253.40625 147.886719 L 252.851562 139.273438 L 251.394531 130.175781 L 249.097656 120.636719 L 246.035156 110.695312 C 243.738281 103.929688 241.027344 96.941406 237.898438 89.734375 C 228.132812 67.910156 216.304688 44.984375 202.410156 20.949219 " fill-opacity="1" fill-rule="nonzero"/></g><path fill="#ff686d" d="M 163.507812 79.335938 L 162.382812 79.6875 L 161.054688 80.753906 L 159.527344 82.523438 C 156.574219 86.898438 154.640625 90.085938 153.726562 92.097656 C 149.761719 100.015625 147.222656 105.332031 146.109375 108.050781 C 145.011719 110.714844 144.035156 113.3125 143.179688 115.84375 C 141.460938 120.90625 140.21875 125.703125 139.445312 130.226562 C 139.0625 132.488281 138.792969 134.6875 138.644531 136.816406 C 138.515625 138.820312 138.460938 141.003906 138.476562 143.367188 L 138.578125 146.625 C 138.691406 148.75 138.890625 150.773438 139.183594 152.699219 L 139.6875 155.511719 C 140.066406 157.339844 140.535156 159.0625 141.09375 160.691406 C 142 163.597656 143.683594 166.800781 146.132812 170.300781 C 150.144531 175.527344 153.277344 178.824219 155.539062 180.191406 C 157.660156 181.941406 161.441406 184.046875 166.882812 186.503906 C 163.703125 180.722656 161.296875 174.792969 159.671875 168.722656 C 157.976562 161.765625 156.910156 156.605469 156.464844 153.246094 C 155.828125 149.121094 155.433594 145.269531 155.28125 141.695312 C 155.105469 135.457031 155.105469 131.054688 155.277344 128.484375 C 155.554688 123.136719 156.023438 118.324219 156.6875 114.039062 C 157.464844 108.535156 159.929688 97.761719 164.082031 81.71875 C 164.375 80.417969 164.183594 79.621094 163.507812 79.335938 " fill-opacity="1" fill-rule="nonzero"/><g clip-path="url(#bdb59651ea)"><path fill="#e70008" d="M 266.597656 268.597656 C 266.558594 268.597656 266.519531 268.621094 266.5 268.65625 C 250.453125 297.199219 234.570312 325.59375 234.746094 345.117188 C 234.921875 364.425781 250.84375 375.085938 266.636719 375.085938 C 266.84375 375.085938 267.054688 375.085938 267.261719 375.082031 C 267.261719 375.082031 267.265625 375.082031 267.265625 375.082031 C 283.253906 374.792969 298.808594 363.535156 298.632812 343.96875 C 298.457031 324.445312 282.65625 296.625 266.699219 268.664062 C 266.683594 268.625 266.644531 268.597656 266.597656 268.597656 Z M 266.597656 268.597656 " fill-opacity="1" fill-rule="nonzero"/></g><g clip-path="url(#4d48390eeb)"><path fill="#d50009" d="M 272.730469 279.277344 L 272.824219 280.097656 C 273.003906 282.097656 273.914062 286.179688 275.5625 292.34375 C 277.894531 300.402344 280.5625 308.921875 283.574219 317.902344 C 283.90625 318.992188 284.386719 320.78125 285.007812 323.269531 C 285.722656 326.0625 286.308594 329.085938 286.765625 332.347656 C 286.941406 333.171875 287.117188 335.339844 287.296875 338.859375 C 287.332031 343.050781 286.96875 346.652344 286.210938 349.671875 C 285.761719 351.757812 285.203125 353.789062 284.535156 355.769531 L 283.445312 358.699219 C 281.054688 364.546875 277.761719 369.78125 273.5625 374.394531 C 278.136719 373.472656 282.320312 371.695312 286.113281 369.066406 C 287.984375 367.753906 289.691406 366.238281 291.230469 364.523438 L 293.378906 361.804688 C 294.71875 359.890625 295.816406 357.789062 296.683594 355.5 L 297.769531 351.925781 L 298.429688 348.082031 L 298.632812 343.96875 L 298.351562 339.578125 L 297.609375 334.941406 L 296.445312 330.082031 L 294.890625 325.015625 C 293.722656 321.566406 292.34375 318.003906 290.753906 314.332031 C 285.792969 303.210938 279.789062 291.527344 272.730469 279.277344 " fill-opacity="1" fill-rule="nonzero"/></g><path fill="#ff686d" d="M 252.972656 309.03125 L 252.402344 309.214844 L 251.726562 309.753906 L 250.949219 310.660156 C 249.449219 312.886719 248.46875 314.511719 248.003906 315.535156 C 245.992188 319.570312 244.699219 322.28125 244.132812 323.667969 C 243.578125 325.023438 243.082031 326.347656 242.648438 327.640625 C 241.773438 330.21875 241.144531 332.664062 240.75 334.96875 C 240.554688 336.121094 240.417969 337.242188 240.34375 338.324219 C 240.28125 339.347656 240.25 340.460938 240.257812 341.664062 L 240.308594 343.328125 C 240.367188 344.410156 240.46875 345.441406 240.617188 346.421875 L 240.871094 347.855469 C 241.066406 348.785156 241.304688 349.664062 241.585938 350.492188 C 242.050781 351.976562 242.902344 353.605469 244.148438 355.390625 C 246.183594 358.054688 247.777344 359.734375 248.925781 360.433594 C 250.003906 361.324219 251.921875 362.394531 254.6875 363.648438 C 253.070312 360.703125 251.847656 357.679688 251.023438 354.585938 C 250.164062 351.042969 249.621094 348.414062 249.394531 346.699219 C 249.070312 344.597656 248.871094 342.636719 248.792969 340.8125 C 248.703125 337.636719 248.703125 335.390625 248.792969 334.082031 C 248.933594 331.355469 249.171875 328.902344 249.507812 326.71875 C 249.902344 323.914062 251.15625 318.425781 253.265625 310.25 C 253.414062 309.585938 253.316406 309.179688 252.972656 309.03125 " fill-opacity="1" fill-rule="nonzero"/><g fill="#000000" fill-opacity="1"><g transform="translate(250.86239, 357.574964)"><g><path d="M 1.578125 0 L 1.578125 -0.828125 L 5.203125 -1.421875 L 5.203125 -30.09375 L 1.578125 -30.640625 L 1.578125 -31.515625 L 13.15625 -31.515625 L 13.15625 -30.640625 L 9.53125 -30.09375 L 9.53125 -17.171875 L 24.5 -17.171875 L 24.5 -30.09375 L 20.84375 -30.640625 L 20.84375 -31.515625 L 32.5 -31.515625 L 32.5 -30.640625 L 28.828125 -30.09375 L 28.828125 -1.421875 L 32.5 -0.828125 L 32.5 0 L 20.84375 0 L 20.84375 -0.828125 L 24.5 -1.421875 L 24.5 -16.1875 L 9.53125 -16.1875 L 9.53125 -1.421875 L 13.15625 -0.828125 L 13.15625 0 Z M 1.578125 0 "/></g></g></g><g clip-path="url(#c249c36872)"><path fill="#e70008" d="M 112.023438 208.933594 C 111.976562 208.933594 111.933594 208.960938 111.914062 209 C 93.863281 241.042969 75.992188 272.917969 76.191406 294.839844 C 76.386719 316.511719 94.296875 328.484375 112.066406 328.484375 C 112.300781 328.484375 112.535156 328.480469 112.769531 328.476562 C 112.769531 328.476562 112.773438 328.476562 112.773438 328.476562 C 130.761719 328.152344 148.257812 315.515625 148.058594 293.550781 C 147.863281 271.632812 130.089844 240.402344 112.136719 209.007812 C 112.117188 208.964844 112.074219 208.933594 112.023438 208.933594 Z M 112.023438 208.933594 " fill-opacity="1" fill-rule="nonzero"/></g><g clip-path="url(#626d7d15f8)"><path fill="#d50009" d="M 118.921875 220.925781 L 119.027344 221.84375 C 119.226562 224.089844 120.253906 228.671875 122.109375 235.589844 C 124.730469 244.640625 127.734375 254.203125 131.121094 264.289062 C 131.496094 265.511719 132.035156 267.519531 132.734375 270.3125 C 133.539062 273.445312 134.199219 276.84375 134.714844 280.503906 C 134.910156 281.425781 135.105469 283.863281 135.308594 287.816406 C 135.347656 292.519531 134.941406 296.5625 134.085938 299.953125 C 133.582031 302.292969 132.953125 304.574219 132.199219 306.796875 L 130.976562 310.085938 C 128.289062 316.652344 124.582031 322.527344 119.859375 327.707031 C 125.003906 326.671875 129.710938 324.679688 133.976562 321.722656 C 136.085938 320.25 138.003906 318.550781 139.734375 316.625 L 142.152344 313.570312 C 143.65625 311.425781 144.894531 309.066406 145.867188 306.496094 L 147.089844 302.484375 L 147.832031 298.164062 L 148.058594 293.550781 L 147.746094 288.621094 L 146.910156 283.417969 L 145.597656 277.960938 L 143.851562 272.269531 C 142.539062 268.398438 140.988281 264.402344 139.199219 260.277344 C 133.621094 247.792969 126.859375 234.675781 118.921875 220.925781 " fill-opacity="1" fill-rule="nonzero"/></g><path fill="#ff686d" d="M 96.695312 254.328125 L 96.050781 254.53125 L 95.292969 255.140625 L 94.417969 256.152344 C 92.730469 258.65625 91.628906 260.480469 91.105469 261.628906 C 88.839844 266.160156 87.390625 269.203125 86.75 270.757812 C 86.125 272.28125 85.570312 273.769531 85.078125 275.214844 C 84.097656 278.113281 83.386719 280.855469 82.945312 283.445312 C 82.726562 284.738281 82.574219 285.996094 82.488281 287.214844 C 82.414062 288.363281 82.382812 289.613281 82.390625 290.960938 L 82.449219 292.828125 C 82.515625 294.042969 82.628906 295.199219 82.796875 296.300781 L 83.082031 297.910156 C 83.300781 298.957031 83.566406 299.945312 83.886719 300.875 C 84.40625 302.539062 85.367188 304.371094 86.765625 306.371094 C 89.058594 309.363281 90.847656 311.25 92.140625 312.03125 C 93.351562 313.03125 95.515625 314.234375 98.621094 315.644531 C 96.804688 312.332031 95.429688 308.941406 94.5 305.46875 C 93.535156 301.488281 92.921875 298.539062 92.667969 296.613281 C 92.304688 294.253906 92.082031 292.050781 91.992188 290.007812 C 91.894531 286.4375 91.890625 283.917969 91.992188 282.449219 C 92.152344 279.390625 92.417969 276.636719 92.796875 274.183594 C 93.242188 271.035156 94.648438 264.871094 97.023438 255.691406 C 97.191406 254.949219 97.082031 254.492188 96.695312 254.328125 " fill-opacity="1" fill-rule="nonzero"/><g fill="#000000" fill-opacity="1"><g transform="translate(94.263594, 308.723292)"><g><path d="M 1.765625 -0.921875 L 5.828125 -1.59375 L 5.828125 -33.75 L 1.765625 -34.359375 L 1.765625 -35.34375 L 18.6875 -35.34375 C 21.925781 -35.34375 24.800781 -34.613281 27.3125 -33.15625 C 29.832031 -31.695312 31.800781 -29.632812 33.21875 -26.96875 C 34.632812 -24.300781 35.34375 -21.203125 35.34375 -17.671875 C 35.34375 -14.140625 34.632812 -11.039062 33.21875 -8.375 C 31.800781 -5.707031 29.828125 -3.644531 27.296875 -2.1875 C 24.765625 -0.726562 21.894531 0 18.6875 0 L 1.765625 0 Z M 18.6875 -1.0625 C 20.832031 -1.0625 22.738281 -1.5625 24.40625 -2.5625 C 26.070312 -3.5625 27.375 -5.054688 28.3125 -7.046875 C 29.257812 -9.035156 29.734375 -11.441406 29.734375 -14.265625 L 29.734375 -21.0625 C 29.734375 -23.894531 29.257812 -26.296875 28.3125 -28.265625 C 27.375 -30.242188 26.070312 -31.734375 24.40625 -32.734375 C 22.738281 -33.734375 20.832031 -34.234375 18.6875 -34.234375 L 10.6875 -34.234375 L 10.6875 -1.0625 Z M 18.6875 -1.0625 "/></g></g></g></svg>